<?xml version="1.0" encoding="utf-8"?>
<!-- Generator: Adobe Illustrator 28.1.0, SVG Export Plug-In . SVG Version: 6.00 Build 0)  -->
<svg version="1.1" id="レイヤー_1" xmlns="http://www.w3.org/2000/svg" xmlns:xlink="http://www.w3.org/1999/xlink" x="0px"
	 y="0px" viewBox="0 0 80 987" style="enable-background:new 0 0 80 987;" xml:space="preserve">
<style type="text/css">
	.st0{fill:#FFFFFF;}
</style>
<g>
	<path class="st0" d="M74.59,904.29h4.73v82.5h-4.73v-23.87c-3.45,5.87-8.12,10.47-14.02,13.8c-5.9,3.34-12.6,5.01-20.08,5.01
		c-11.29,0-20.75-3.91-28.38-11.72c-7.63-7.81-11.44-17.23-11.44-28.27c0-11.04,3.63-20.62,10.89-28.76l12.87,8.91
		c-3.01,3.45-5.08,6.62-6.21,9.52c-1.14,2.9-1.71,6.03-1.71,9.4c0,6.53,2.22,12.03,6.66,16.5c4.44,4.47,10.28,6.71,17.54,6.71
		c7.26,0,13.07-2.15,17.44-6.44c4.36-4.29,6.54-9.41,6.54-15.34c0-5.94-1.14-10.89-3.41-14.85H40.16v-17.27h27.28
		c2.79,2.49,5.17,5.46,7.15,8.91V904.29z"/>
	<path class="st0" d="M74.59,894.83H2.43v-29.15c0-11.95,2.02-20.48,6.05-25.57c4.03-5.1,10.52-7.65,19.47-7.65
		c12.32,0,20.28,4.88,23.87,14.63l22.77-16.06v-10.34h4.73v28.05L54.8,865.79v11.88h24.53v27.83h-4.73V894.83z M37.08,853.14
		c-1.91-2.13-4.93-3.19-9.07-3.19c-4.14,0-6.98,1.1-8.52,3.3s-2.31,6.05-2.31,11.55v12.87h22.77v-12.54
		C39.95,859.26,38.99,855.27,37.08,853.14z"/>
	<path class="st0" d="M74.59,731.15h4.73v28.93l-16.61,7.15v32.23l16.61,7.15v28.93h-4.73v-12.65L2.43,791.65v-16.61l72.16-31.13
		V731.15z M25.32,783.29l22.33,9.68v-19.25L25.32,783.29z"/>
	<path class="st0" d="M74.59,667.9h4.73v75.68h-4.73v-10.67H2.43v-27.17c0-11.81,2.29-20.41,6.88-25.79
		c4.58-5.39,11.62-8.08,21.12-8.08c9.5,0,16.44,2.77,20.85,8.3c4.4,5.54,6.6,13.99,6.6,25.36v10.23h16.72V667.9z M39.56,692.54
		c-2.31-2.05-5.68-3.08-10.12-3.08c-4.44,0-7.59,1.34-9.46,4.02c-1.87,2.68-2.8,6.84-2.8,12.48v9.79h25.85V704.2
		C43.03,698.48,41.87,694.6,39.56,692.54z"/>
	<path class="st0" d="M74.59,584.08h4.73v26.62H49.07v30.58h30.25v26.62h-4.73v-9.46H2.43v-17.16h32.12V610.7H2.43v-17.16h72.16
		V584.08z"/>
	<path class="st0" d="M74.59,548h4.73v36.08h-4.73v-9.46H2.43v-17.16h72.16V548z"/>
	<path class="st0" d="M74.59,467.04h4.73V548h-4.73v-23.65c-3.45,5.87-8.12,10.47-14.02,13.81c-5.9,3.34-12.6,5-20.08,5
		c-11.29,0-20.75-3.91-28.38-11.71c-7.63-7.81-11.44-17.36-11.44-28.66c0-12.61,4.8-23.17,14.41-31.68l12.1,10.67
		c-6.75,5.43-10.12,12.17-10.12,20.24c0,6.45,2.11,11.97,6.32,16.56c4.22,4.58,9.9,6.88,17.05,6.88c7.15,0,12.89-2.16,17.21-6.49
		c4.33-4.33,6.49-9.57,6.49-15.73c0-8.43-3.34-15.33-10.01-20.68l11.33-11c3.74,3.23,6.78,6.86,9.13,10.89V467.04z"/>
	<path class="st0" d="M74.59,351.99h4.73v87.23h-4.73v-10.67H2.43v-27.17c0-13.71,3.35-24.24,10.06-31.57
		c6.71-7.33,16.15-11,28.33-11c16.43,0,27.68,6.38,33.77,19.14V351.99z M58.2,382.4c-3.96-4.22-9.72-6.33-17.27-6.33
		c-7.55,0-13.36,2.11-17.44,6.33c-4.07,4.22-6.1,10.69-6.1,19.42v9.57h46.75V400.5C64.14,392.65,62.16,386.62,58.2,382.4z"/>
	<path class="st0" d="M74.59,342.53H2.43v-55.44h15.29v38.28h15.84v-34.43H48.2v34.43h15.95v-39.49h10.45v-10.67h4.73v77.99h-4.73
		V342.53z"/>
	<path class="st0" d="M74.59,209.87h4.73v70.18h-4.73v-14.96c-2.05,4.03-4.69,7.7-7.92,11l-12.54-10.23
		c7.26-8.29,10.89-15.95,10.89-22.99c0-3.15-0.68-5.63-2.04-7.42c-1.36-1.8-3.19-2.69-5.5-2.69s-4.14,0.95-5.5,2.86
		c-1.36,1.91-2.73,5.68-4.12,11.33c-2.13,8.95-4.9,15.49-8.31,19.63c-3.41,4.14-8.76,6.22-16.06,6.22c-7.3,0-12.92-2.62-16.88-7.87
		c-3.96-5.24-5.94-11.79-5.94-19.63c0-5.13,0.88-10.27,2.64-15.4c1.76-5.13,4.25-9.61,7.48-13.42l12.54,8.69
		c-5.06,6.67-7.59,13.57-7.59,20.68c0,2.86,0.68,5.11,2.04,6.77c1.36,1.65,3.15,2.47,5.39,2.47c2.24,0,4.01-1.01,5.33-3.02
		c1.32-2.02,2.88-6.67,4.67-13.97c1.8-7.3,4.49-12.96,8.08-17c3.59-4.03,8.58-6.05,14.96-6.05c7.92,0,14.04,2.97,18.37,8.91V209.87z
		"/>
	<path class="st0" d="M74.59,173.79h4.73v36.08h-4.73v-9.46H2.43v-17.16h72.16V173.79z"/>
	<path class="st0" d="M74.59,91.29h4.73v82.5h-4.73v-23.87c-3.45,5.87-8.12,10.47-14.02,13.81c-5.9,3.34-12.6,5-20.08,5
		c-11.29,0-20.75-3.9-28.38-11.71c-7.63-7.81-11.44-17.23-11.44-28.27c0-11.04,3.63-20.62,10.89-28.77l12.87,8.91
		c-3.01,3.45-5.08,6.62-6.21,9.52c-1.14,2.9-1.71,6.03-1.71,9.4c0,6.53,2.22,12.03,6.66,16.5c4.44,4.47,10.28,6.71,17.54,6.71
		c7.26,0,13.07-2.15,17.44-6.44c4.36-4.29,6.54-9.4,6.54-15.34c0-5.94-1.14-10.89-3.41-14.85H40.16V97.12h27.28
		c2.79,2.49,5.17,5.46,7.15,8.91V91.29z"/>
	<path class="st0" d="M74.59,81.83H2.43V65.77l49.5-37.73H2.43V10.88h72.16V0.21h4.73v27.83L31.14,64.67h48.18V92.5h-4.73V81.83z"/>
</g>
</svg>
