<?xml version="1.0" encoding="utf-8"?>
<!-- Generator: Adobe Illustrator 28.1.0, SVG Export Plug-In . SVG Version: 6.00 Build 0)  -->
<svg version="1.1" id="レイヤー_1" xmlns="http://www.w3.org/2000/svg" xmlns:xlink="http://www.w3.org/1999/xlink" x="0px"
	 y="0px" viewBox="0 0 80 828" style="enable-background:new 0 0 80 828;" xml:space="preserve">
<style type="text/css">
	.st0{fill:#FFFFFF;}
</style>
<g>
	<path class="st0" d="M74.59,791.68h4.73v36.08h-4.73v-9.46H2.43v-17.16h72.16V791.68z"/>
	<path class="st0" d="M74.59,721.61h4.73v71.28h-4.73v-10.67H2.43v-17.16h61.6v-32.78h10.56V721.61z"/>
	<path class="st0" d="M74.59,659.13h4.73v71.28h-4.73v-10.67H2.43v-17.16h61.6V669.8h10.56V659.13z"/>
	<path class="st0" d="M74.59,584.11h4.73v82.61h-4.73v-21.89c-6.01,9.02-15.73,13.53-29.15,13.53H2.43V641.2h42.46
		c6.16,0,11.02-1.43,14.58-4.29c3.56-2.86,5.33-6.71,5.33-11.55c0-4.84-1.78-8.67-5.33-11.5c-3.56-2.82-8.42-4.23-14.58-4.23H2.43
		v-17.16h43.01c13.42,0,23.14,4.47,29.15,13.42V584.11z"/>
	<path class="st0" d="M74.59,513.93h4.73v70.18h-4.73v-14.96c-2.05,4.03-4.69,7.7-7.92,11l-12.54-10.23
		c7.26-8.29,10.89-15.95,10.89-22.99c0-3.15-0.68-5.63-2.04-7.43c-1.36-1.8-3.19-2.69-5.5-2.69s-4.14,0.95-5.5,2.86
		c-1.36,1.91-2.73,5.68-4.12,11.33c-2.13,8.95-4.9,15.49-8.31,19.64c-3.41,4.14-8.76,6.21-16.06,6.21c-7.3,0-12.92-2.62-16.88-7.87
		c-3.96-5.24-5.94-11.79-5.94-19.63c0-5.13,0.88-10.27,2.64-15.4c1.76-5.13,4.25-9.61,7.48-13.42l12.54,8.69
		c-5.06,6.67-7.59,13.57-7.59,20.68c0,2.86,0.68,5.12,2.04,6.76c1.36,1.65,3.15,2.48,5.39,2.48c2.24,0,4.01-1.01,5.33-3.03
		c1.32-2.02,2.88-6.67,4.67-13.97c1.8-7.3,4.49-12.96,8.08-17c3.59-4.03,8.58-6.05,14.96-6.05c7.92,0,14.04,2.97,18.37,8.91V513.93z
		"/>
	<path class="st0" d="M74.59,447.05h4.73v66.88h-4.73v-24.86H17.28v21.78H2.43v-60.72h14.85v21.78h57.31V447.05z"/>
	<path class="st0" d="M74.59,437.59H2.43v-29.15c0-11.95,2.02-20.48,6.05-25.57c4.03-5.1,10.52-7.65,19.47-7.65
		c12.32,0,20.28,4.88,23.87,14.63l22.77-16.06v-10.34h4.73v28.05L54.8,408.55v11.88h24.53v27.83h-4.73V437.59z M37.08,395.9
		c-1.91-2.13-4.93-3.19-9.07-3.19c-4.14,0-6.98,1.1-8.52,3.3s-2.31,6.05-2.31,11.55v12.87h22.77v-12.54
		C39.95,402.03,38.99,398.03,37.08,395.9z"/>
	<path class="st0" d="M74.59,273.92h4.73v28.93L62.72,310v32.23l16.61,7.15v28.93h-4.73v-12.65L2.43,334.42v-16.61l72.16-31.13
		V273.92z M25.32,326.06l22.33,9.68v-19.25L25.32,326.06z"/>
	<path class="st0" d="M74.59,218.26h4.73v66.88h-4.73v-24.86H17.28v21.78H2.43v-60.72h14.85v21.78h57.31V218.26z"/>
	<path class="st0" d="M74.59,182.18h4.73v36.08h-4.73v-9.46H2.43v-17.16h72.16V182.18z"/>
	<path class="st0" d="M74.59,91.32h4.73v90.86h-4.73v-24.53c-3.45,6.01-8.18,10.76-14.19,14.24c-6.01,3.48-12.69,5.23-20.02,5.23
		c-11.29,0-20.73-3.89-28.33-11.66c-7.59-7.77-11.38-17.34-11.38-28.71c0-11.37,3.79-20.94,11.38-28.71
		c7.59-7.77,17.03-11.66,28.33-11.66c7.33,0,14.01,1.76,20.02,5.28c6.01,3.52,10.74,8.25,14.19,14.19V91.32z M40.44,113.87
		c-6.86,0-12.71,2.2-17.55,6.6c-4.84,4.4-7.26,9.81-7.26,16.23c0,6.42,2.42,11.82,7.26,16.23c4.84,4.4,10.69,6.6,17.55,6.6
		c6.86,0,12.69-2.2,17.49-6.6c4.8-4.4,7.21-9.81,7.21-16.23c0-6.42-2.4-11.83-7.21-16.23C53.13,116.07,47.3,113.87,40.44,113.87z"/>
	<path class="st0" d="M74.59,81.86H2.43V65.8l49.5-37.73H2.43V10.91h72.16V0.24h4.73v27.83L31.14,64.7h48.18v27.83h-4.73V81.86z"/>
</g>
</svg>
