<?xml version="1.0" encoding="utf-8"?>
<!-- Generator: Adobe Illustrator 28.2.0, SVG Export Plug-In . SVG Version: 6.00 Build 0)  -->
<svg version="1.1" id="レイヤー_1" xmlns="http://www.w3.org/2000/svg" xmlns:xlink="http://www.w3.org/1999/xlink" x="0px"
	 y="0px" viewBox="0 0 80 80" style="enable-background:new 0 0 80 80;" xml:space="preserve">
<style type="text/css">
	.st0{fill:#333333;}
</style>
<g>
	<path class="st0" d="M4.3,80c-0.3-0.1-0.7-0.1-1-0.2c-2-0.5-3.3-2.2-3.3-4.3c0-21.3,0-42.5,0-63.8c0-2.5,2-4.4,4.5-4.4
		c6.7,0,13.3,0,20,0c3.1,0,6.3,0,9.4,0c0.1,0,0.2,0,0.4,0c0,2.9,0,5.9,0,8.8c-8.4,0-16.9,0-25.4,0c0,18.3,0,36.6,0,54.9
		c18.3,0,36.6,0,54.9,0c0-8.5,0-16.9,0-25.4c3,0,5.9,0,8.8,0c0,0.1,0,0.2,0,0.3c0,9.9,0,19.7,0,29.6c0,2.3-1.8,4.2-4.1,4.3
		c-0.1,0-0.2,0-0.3,0C46.9,80,25.6,80,4.3,80z"/>
	<path class="st0" d="M66.9,7.3c-0.2,0-0.3,0-0.3,0c-1.9,0-3.7,0-5.6,0c-2.5,0-5,0-7.4-0.1c-1.9,0-3.7,0-5.6-0.1
		c-1.8,0-3.4-1.5-3.5-3.3c-0.1-1.9,1.1-3.6,2.9-3.8C47.9,0,48.5,0,49.1,0c3.2,0,6.5,0,9.7,0.1c2.2,0,4.4,0,6.6,0.1
		c2.2,0,4.3,0,6.5,0.1c2,0,4,0,5.9,0.1c1,0,1.8,0.8,1.8,1.8c0,1.7,0,3.3,0,5c0,2.2,0,4.4,0.1,6.6c0,2,0,4.1,0.1,6.1
		c0,2.3,0,4.6,0.1,6.8c0,1.9,0.1,3.7,0,5.6c0,1.8-1.7,3.3-3.5,3.3c-1.6,0-3.3-1-3.6-2.9c-0.1-0.6-0.1-1.2-0.1-1.8c0-1.5,0-3,0-4.5
		c0-2.2,0-4.4-0.1-6.6c0-2.1,0-4.2-0.1-6.3c0-0.1,0-0.2,0-0.3c-0.1,0.1-0.2,0.2-0.3,0.3C67,18.7,61.6,24.1,56.2,29.5
		c-6.6,6.6-13.3,13.3-19.9,19.9c-1.3,1.3-3.2,1.6-4.7,0.9c-2.5-1.2-3-4.5-1.1-6.5c0.1-0.1,0.1-0.1,0.2-0.2c12-12,24-24,36-36
		C66.7,7.6,66.8,7.5,66.9,7.3z"/>
</g>
</svg>
