<?xml version="1.0" encoding="utf-8"?>
<!-- Generator: Adobe Illustrator 28.1.0, SVG Export Plug-In . SVG Version: 6.00 Build 0)  -->
<svg version="1.1" id="レイヤー_1" xmlns="http://www.w3.org/2000/svg" xmlns:xlink="http://www.w3.org/1999/xlink" x="0px"
	 y="0px" viewBox="0 0 80 62" style="enable-background:new 0 0 80 62;" xml:space="preserve">
<style type="text/css">
	.st0{fill:#F2C2C2;}
</style>
<path class="st0" d="M75.3,0.6H4.7C2.1,0.6,0,2.7,0,5.3v51.4c0,2.6,2.1,4.7,4.7,4.7h70.6c2.6,0,4.7-2.1,4.7-4.7V5.3
	C80,2.7,77.9,0.6,75.3,0.6z M74,52.1L54.9,33L74,14V52.1z M36.7,44.6c0.9,0.9,2.1,1.4,3.3,1.4c1.3,0,2.4-0.5,3.3-1.4l7.4-7.4
	l18.1,18.1H11.2l18.1-18.1L36.7,44.6z M72.9,6.6L40,39.5L7.1,6.6H72.9z M25.1,33L6,52.1V14L25.1,33z"/>
</svg>
