<?xml version="1.0" encoding="utf-8"?>
<!-- Generator: Adobe Illustrator 28.1.0, SVG Export Plug-In . SVG Version: 6.00 Build 0)  -->
<svg version="1.1" id="レイヤー_1" xmlns="http://www.w3.org/2000/svg" xmlns:xlink="http://www.w3.org/1999/xlink" x="0px"
	 y="0px" viewBox="0 0 80 729" style="enable-background:new 0 0 80 729;" xml:space="preserve">
<style type="text/css">
	.st0{fill:#FFFFFF;}
</style>
<g>
	<path class="st0" d="M74.59,616.51h4.73v39.27l-53.46,16.83l53.46,16.72v39.27h-4.73v-24.86L2.43,728.93v-18.59l44.22-15.18
		L2.43,681.52v-17.93l44.22-13.53L2.43,634.77v-18.59l72.16,25.19V616.51z"/>
	<path class="st0" d="M74.59,607.05H2.43v-55.44h15.29v38.28h15.84v-34.43H48.2v34.43h15.95V550.4h10.45v-10.67h4.73v77.99h-4.73
		V607.05z"/>
	<path class="st0" d="M74.59,466.91h4.73v78.87h-4.73v-10.67H2.43v-29.92c0-5.21,0.62-9.7,1.87-13.48c1.25-3.78,2.93-6.62,5.06-8.52
		c3.96-3.45,8.43-5.17,13.42-5.17c6.01,0,10.49,1.94,13.42,5.83c1.03,1.32,1.67,2.24,1.93,2.75c0.26,0.51,0.68,1.43,1.26,2.75
		c1.03-4.77,3.17-8.56,6.44-11.39c3.26-2.82,7.31-4.23,12.16-4.23c7.26,0,12.8,2.86,16.61,8.58V466.91z M33.57,517.95v-8.14
		c0-4.77-0.51-8.31-1.54-10.62c-1.03-2.31-3.25-3.46-6.66-3.46s-5.67,1.06-6.77,3.19c-1.1,2.13-1.65,5.72-1.65,10.78v8.25H33.57z
		 M64.8,517.95v-11.77c0-4.91-0.6-8.6-1.81-11.06c-1.21-2.46-3.59-3.68-7.15-3.68c-3.56,0-5.9,1.3-7.04,3.91
		c-1.14,2.6-1.71,6.76-1.71,12.48v10.12H64.8z"/>
	<path class="st0" d="M74.59,351.85h4.73v87.23h-4.73v-10.67H2.43v-27.17c0-13.71,3.35-24.24,10.06-31.57
		c6.71-7.33,16.15-11,28.33-11c16.43,0,27.68,6.38,33.77,19.14V351.85z M58.2,382.26c-3.96-4.22-9.72-6.32-17.27-6.32
		c-7.55,0-13.36,2.11-17.44,6.32c-4.07,4.22-6.1,10.69-6.1,19.42v9.57h46.75v-10.89C64.14,392.51,62.16,386.48,58.2,382.26z"/>
	<path class="st0" d="M74.59,342.39H2.43v-55.44h15.29v38.28h15.84V290.8H48.2v34.43h15.95v-39.49h10.45v-10.67h4.73v77.99h-4.73
		V342.39z"/>
	<path class="st0" d="M74.59,209.73h4.73v70.18h-4.73v-14.96c-2.05,4.03-4.69,7.7-7.92,11l-12.54-10.23
		c7.26-8.29,10.89-15.95,10.89-22.99c0-3.15-0.68-5.63-2.04-7.43c-1.36-1.8-3.19-2.69-5.5-2.69s-4.14,0.95-5.5,2.86
		c-1.36,1.91-2.73,5.68-4.12,11.33c-2.13,8.95-4.9,15.49-8.31,19.64c-3.41,4.14-8.76,6.21-16.06,6.21c-7.3,0-12.92-2.62-16.88-7.87
		c-3.96-5.24-5.94-11.79-5.94-19.63c0-5.13,0.88-10.27,2.64-15.4c1.76-5.13,4.25-9.61,7.48-13.42l12.54,8.69
		c-5.06,6.67-7.59,13.57-7.59,20.68c0,2.86,0.68,5.12,2.04,6.76c1.36,1.65,3.15,2.48,5.39,2.48c2.24,0,4.01-1.01,5.33-3.03
		c1.32-2.02,2.88-6.67,4.67-13.97c1.8-7.3,4.49-12.96,8.08-17c3.59-4.03,8.58-6.05,14.96-6.05c7.92,0,14.04,2.97,18.37,8.91V209.73z
		"/>
	<path class="st0" d="M74.59,173.65h4.73v36.08h-4.73v-9.46H2.43v-17.16h72.16V173.65z"/>
	<path class="st0" d="M74.59,91.15h4.73v82.5h-4.73v-23.87c-3.45,5.87-8.12,10.47-14.02,13.81c-5.9,3.34-12.6,5-20.08,5
		c-11.29,0-20.75-3.9-28.38-11.71c-7.63-7.81-11.44-17.23-11.44-28.27c0-11.04,3.63-20.62,10.89-28.77l12.87,8.91
		c-3.01,3.45-5.08,6.62-6.21,9.52c-1.14,2.9-1.71,6.03-1.71,9.4c0,6.53,2.22,12.03,6.66,16.5c4.44,4.47,10.28,6.71,17.54,6.71
		c7.26,0,13.07-2.15,17.44-6.44c4.36-4.29,6.54-9.4,6.54-15.34c0-5.94-1.14-10.89-3.41-14.85H40.16V96.98h27.28
		c2.79,2.49,5.17,5.46,7.15,8.91V91.15z"/>
	<path class="st0" d="M74.59,81.69H2.43V65.63l49.5-37.73H2.43V10.74h72.16V0.07h4.73V27.9L31.14,64.53h48.18v27.83h-4.73V81.69z"/>
</g>
</svg>
