<?xml version="1.0" encoding="utf-8"?>
<!-- Generator: Adobe Illustrator 28.1.0, SVG Export Plug-In . SVG Version: 6.00 Build 0)  -->
<svg version="1.1" id="レイヤー_1" xmlns="http://www.w3.org/2000/svg" xmlns:xlink="http://www.w3.org/1999/xlink" x="0px"
	 y="0px" viewBox="0 0 120 90" style="enable-background:new 0 0 120 90;" xml:space="preserve">
<style type="text/css">
	.st0{fill:#CD6799;}
</style>
<path class="st0" d="M103.3,51.8c-3.8,0-7.5,0.9-10.9,2.5c-1.1-1.8-1.9-3.7-2.4-5.6c-0.3-1.6-0.4-3.1-0.2-4.7
	c0.4-1.7,0.8-3.4,1.4-5.1c0-0.2-0.3-1.3-2.7-1.3c-2.4,0-4.5,0.5-4.7,1.1c-0.4,1.2-0.8,2.4-1,3.6c-2,4.9-4.5,9.7-7.3,14.1
	c-1.6-2.7-2.3-5.8-1.9-8.9c0.4-1.7,0.8-3.4,1.4-5.1c0-0.2-0.3-1.3-2.7-1.3c-2.4,0-4.5,0.5-4.7,1.1c-0.2,0.6-0.5,2.1-1,3.6
	c-0.5,1.4-6.4,14.5-7.9,17.9c-0.8,1.7-1.5,3.1-1.9,4.1l0,0c0,0.1-0.1,0.1-0.1,0.2c-0.4,0.8-0.7,1.3-0.7,1.3v0
	c-0.3,0.6-0.7,1.1-0.9,1.1c-0.3-1.2-0.3-2.5,0-3.7c0.9-4.5,3-11.6,2.9-11.8c0-0.1,0.4-1.4-1.4-2c-0.8-0.4-1.8-0.2-2.5,0.4
	c-0.2,0-0.3,0.4-0.3,0.4s1.9-7.9-3.6-7.9c-4.4,0.9-8.2,3.5-10.6,7.2c-1.5,0.8-4.7,2.5-8.1,4.4c-1.3,0.7-2.6,1.4-3.9,2.1
	c-0.1-0.1-0.2-0.2-0.3-0.3C20.9,51.9,8.5,46.8,9,37.2c0.2-3.5,1.4-12.7,23.8-23.9c18.5-9.1,33.1-6.6,35.7-1
	c3.6,8-7.9,22.8-26.9,24.9c-4.3,0.9-8.7-0.3-12.1-3c-1-1.1-1.2-1.2-1.5-0.9c-0.6,0.3-0.2,1.3,0,1.9c1.5,2.7,4,4.6,6.9,5.4
	c7.5,1.6,15.3,0.8,22.4-2.2c11.6-4.5,20.6-16.9,17.9-27.3C72.5,0.5,55-3,38.4,2.9c-10.4,3.5-20,9-28.3,16.2
	c-9.1,8.5-10.6,16-10,19.1c2.1,11,17.4,18.2,23.4,23.6c-0.3,0.2-0.6,0.3-0.8,0.5c-3,1.5-14.7,7.6-17.6,14c-3.3,7.3,0.5,12.5,3,13.2
	c7.8,1.9,15.9-1.4,20.2-8.2c3.6-5.5,4.3-12.5,1.8-18.7c0,0,0-0.1-0.1-0.1l2.4-1.4c1.6-0.9,3.1-1.8,4.4-2.5c-0.9,2.6-1.4,5.3-1.6,8
	c-0.3,4.2,1,8.3,3.6,11.6c0.8,0.7,1.8,1,2.9,0.9c2.6,0,3.7-2.1,5-4.7c1.6-3.1,3-6.7,3-6.7s-1.8,9.8,3,9.8c1.8,0,3.5-2.3,4.3-3.4v0
	c0,0,0-0.1,0.1-0.2l0.3-0.5v0c0.7-1.2,2.3-4,4.6-8.6c3-6,5.9-13.4,5.9-13.4c0.3,1.6,0.7,3.3,1.2,4.8c0.7,1.9,1.5,3.8,2.5,5.6
	c-0.7,1-1.1,1.5-1.1,1.5l0,0c-0.6,0.7-1.2,1.6-1.9,2.3c-2,2.2-3.9,4.6-5.6,7.1c-0.5,0.9-0.3,2,0.5,2.6c0.9,0.5,1.9,0.6,2.9,0.5
	c1.5-0.1,3-0.4,4.4-1c1.4-0.5,2.6-1.1,3.8-2c2.4-1.7,3.8-4.5,3.6-7.5c-0.1-1.8-0.6-3.6-1.4-5.3c0.2-0.3,0.4-0.6,0.6-0.9
	c2.4-3.6,4.6-7.4,6.6-11.4c0.3,1.6,0.7,3.3,1.2,4.8c0.6,1.7,1.3,3.3,2.1,4.8c-2.8,2.2-5,5-6.4,8.2c-1.4,4-0.3,5.8,1.7,6.2
	c1.1,0.1,2.2-0.2,3.2-0.7c1.5-0.5,2.8-1.2,4.1-2.1c2.6-1.6,4.3-4.3,4.5-7.4c-0.1-1.5-0.4-3-1-4.4c3.7-1.4,7.7-1.9,11.6-1.3
	c10.4,1.2,12.5,7.7,12.1,10.5c-0.4,2-1.6,3.7-3.3,4.7c-0.7,0.5-1,0.6-0.9,0.9c0.1,0.5,0.4,0.5,1,0.4c3.2-1,5.5-3.9,5.7-7.2
	C120.3,58.8,114.2,51.7,103.3,51.8L103.3,51.8z M22.8,78.9c-3.5,3.8-8.3,5.2-10.4,4c-2.2-1.3-1.4-6.9,2.9-10.9
	c2.5-2.3,5.2-4.3,8.1-6.1c0.5-0.3,1.3-0.7,2.1-1.3l0.2-0.1l0,0l0.5-0.3C28,69.4,26.6,75,22.8,78.9z M48,61.7
	c-1.2,2.9-3.7,10.5-5.3,10c-1.3-0.4-2.1-6.1-0.3-11.7c0.9-2.7,2.3-5.2,4.1-7.5c1.9-2.1,4-2.8,4.5-1.9C50.6,54.5,49.6,58.2,48,61.7z
	 M68.8,71.7c-0.5,0.3-1,0.4-1.2,0.3c-0.2-0.1,0.2-0.4,0.2-0.4s2.6-2.8,3.6-4.1c0.6-0.7,1.3-1.6,2-2.6v0.3
	C73.5,68.5,70.3,70.8,68.8,71.7L68.8,71.7z M84.9,68c-0.4-0.3-0.3-1.1,0.9-3.9c0.9-1.8,2.1-3.3,3.6-4.6c0.2,0.6,0.3,1.3,0.4,2
	C89.8,64.6,87.8,67.2,84.9,68L84.9,68z"/>
</svg>
