<?xml version="1.0" encoding="utf-8"?>
<!-- Generator: Adobe Illustrator 28.1.0, SVG Export Plug-In . SVG Version: 6.00 Build 0)  -->
<svg version="1.1" id="レイヤー_1" xmlns="http://www.w3.org/2000/svg" xmlns:xlink="http://www.w3.org/1999/xlink" x="0px"
	 y="0px" viewBox="0 0 120 120" style="enable-background:new 0 0 120 120;" xml:space="preserve">
<style type="text/css">
	.st0{fill:#E44D26;}
	.st1{fill:#F16529;}
	.st2{fill:#EBEBEB;}
	.st3{fill:#FFFFFF;}
</style>
<g>
	<path class="st0" d="M25.2,110.4l-7.7-86.8h85l-7.7,86.8L59.9,120L25.2,110.4z"/>
	<path class="st1" d="M60,112.6l28.1-7.8l6.6-74.1H60V112.6z"/>
	<path class="st2" d="M60,62.9H45.9l-1-10.9H60V41.3H33.3l0.3,2.9l2.6,29.3H60V62.9z M60,90.5L60,90.5l-11.9-3.2l-0.8-8.5H36.7
		l1.5,16.7l21.8,6.1l0,0V90.5z"/>
	<path d="M25.4,0h5.4v5.3h4.9V0h5.4v16.2h-5.4v-5.4h-4.9v5.4h-5.4C25.4,16.2,25.4,0,25.4,0z M48.3,5.4h-4.8V0h14.9v5.4h-4.8v10.8
		h-5.4C48.3,16.2,48.3,5.4,48.3,5.4z M60.8,0h5.6l3.5,5.7L73.4,0H79v16.2h-5.4v-8l-3.7,5.8h-0.1l-3.7-5.8v8h-5.3L60.8,0L60.8,0z
		 M81.7,0h5.4v10.8h7.6v5.3h-13C81.7,16.2,81.7,0,81.7,0z"/>
	<path class="st3" d="M60,62.9v10.6h13.1l-1.2,13.8L60,90.5v11.1l21.8-6l0.2-1.8l2.5-28l0.3-2.9h-2.9H60z M60,41.3V52h25.7l0.2-2.4
		l0.5-5.4l0.3-2.9H60z"/>
</g>
</svg>
