<?xml version="1.0" encoding="utf-8"?>
<!-- Generator: Adobe Illustrator 28.1.0, SVG Export Plug-In . SVG Version: 6.00 Build 0)  -->
<svg version="1.1" id="レイヤー_1" xmlns="http://www.w3.org/2000/svg" xmlns:xlink="http://www.w3.org/1999/xlink" x="0px"
	 y="0px" viewBox="0 0 120 120" style="enable-background:new 0 0 120 120;" xml:space="preserve">
<style type="text/css">
	.st0{fill:#131313;}
	.st1{fill:#1572B6;}
	.st2{fill:#33A9DC;}
	.st3{fill:#FFFFFF;}
	.st4{fill:#EBEBEB;}
</style>
<g>
	<path class="st0" d="M84.1,4.4h-7.1l7.3,8v3.8H69.3v-4.4h7.3l-7.3-8V0h14.8C84.1,0,84.1,4.4,84.1,4.4z M66.3,4.4h-7.1l7.3,8v3.8
		H51.5v-4.4h7.3l-7.3-8V0h14.8V4.4z M48.6,4.6H41v6.9h7.6v4.6h-13V0h13C48.6,0,48.6,4.6,48.6,4.6z"/>
	<path class="st1" d="M25.2,110.4l-7.7-86.8h85l-7.7,86.8L59.9,120C59.9,120,25.2,110.4,25.2,110.4z"/>
	<path class="st2" d="M60,112.6l28.1-7.8l6.6-74.1H60C60,30.7,60,112.6,60,112.6z"/>
	<path class="st3" d="M60,62.1h14.1l1-10.9H60V40.6h26.7l-0.3,2.9l-2.6,29.3H60V62.1z"/>
	<path class="st4" d="M60.1,89.8L60.1,89.8l-11.9-3.2l-0.8-8.5H36.7l1.5,16.7l21.8,6.1l0,0L60.1,89.8L60.1,89.8z"/>
	<path class="st3" d="M73.2,72.3l-1.3,14.3L60,89.8v11.1l21.8-6L82,93l1.9-20.7L73.2,72.3L73.2,72.3z"/>
	<path class="st4" d="M60,40.6v10.6H34.3l-0.2-2.4l-0.5-5.4l-0.3-2.9C33.4,40.6,60,40.6,60,40.6z M60,62.1v10.6H48.3l-0.2-2.4
		L47.6,65l-0.3-2.9H60z"/>
</g>
</svg>
