<?xml version="1.0" encoding="utf-8"?>
<!-- Generator: Adobe Illustrator 28.1.0, SVG Export Plug-In . SVG Version: 6.00 Build 0)  -->
<svg version="1.1" id="レイヤー_1" xmlns="http://www.w3.org/2000/svg" xmlns:xlink="http://www.w3.org/1999/xlink" x="0px"
	 y="0px" viewBox="0 0 120 120" style="enable-background:new 0 0 120 120;" xml:space="preserve">
<style type="text/css">
	.st0{fill:#0868AC;}
	.st1{fill:#131B28;}
</style>
<g>
	<path class="st0" d="M24.3,18.5c-7.2,10.4-6.3,23.9-0.8,35l0.4,0.8l0.3,0.5l0.2,0.3l0.3,0.5c0.2,0.3,0.3,0.6,0.5,0.9l0.3,0.5
		c0.2,0.3,0.4,0.6,0.6,1l0.3,0.4c0.3,0.4,0.6,0.9,0.9,1.3l0,0l0.1,0.2c0.3,0.4,0.5,0.7,0.8,1.1l0.3,0.4c0.2,0.3,0.5,0.6,0.7,0.9
		l0.3,0.3c0.3,0.4,0.7,0.8,1,1.2l0,0l0,0c0.3,0.4,0.7,0.7,1.1,1.1l0.3,0.3c0.3,0.3,0.6,0.6,0.8,0.8l0.3,0.3c0.4,0.4,0.8,0.7,1.2,1.1
		l0,0l0.2,0.2c0.3,0.3,0.7,0.6,1.1,0.9l0.4,0.3c0.3,0.2,0.6,0.5,0.9,0.7l0.5,0.4c0.3,0.2,0.7,0.5,1,0.7l0.4,0.3l0.1,0.1
		c0.3,0.2,0.6,0.4,1,0.6l0.4,0.3c0.5,0.3,1,0.6,1.5,0.9l0.4,0.2c0.4,0.2,0.7,0.4,1.1,0.6l0.6,0.3l0.8,0.4l0.2,0.1l0.3,0.2
		c0.4,0.2,0.8,0.4,1.3,0.6l0.3,0.1c0.5,0.2,1,0.4,1.5,0.6l0.4,0.1c0.5,0.2,0.9,0.4,1.4,0.5l0.2,0.1c0.5,0.2,1,0.3,1.6,0.5l0.4,0.1
		c0.5,0.2,1.1,0.4,1.6,0.5c35,6.4,45.1-21,45.1-21c-8.5,11.1-23.7,14-38,10.8c-0.5-0.1-1.1-0.3-1.6-0.4l-0.4-0.1
		c-0.5-0.2-1-0.3-1.5-0.5l-0.2-0.1c-0.5-0.2-0.9-0.3-1.4-0.5l-0.4-0.1c-0.5-0.2-1-0.4-1.5-0.6L53.6,65c-0.4-0.2-0.8-0.4-1.2-0.6
		L52,64.2c-0.3-0.2-0.6-0.3-1-0.5l-0.6-0.3c-0.4-0.2-0.8-0.4-1.1-0.6l-0.4-0.2c-0.5-0.3-1-0.6-1.5-0.9L47,61.3
		c-0.4-0.2-0.7-0.5-1.1-0.7l-0.3-0.2c-0.3-0.2-0.7-0.5-1-0.7l-0.4-0.3c-0.3-0.2-0.6-0.5-0.9-0.7l-0.4-0.3c-0.4-0.3-0.8-0.6-1.1-1
		l-0.1-0.1c-0.4-0.4-0.8-0.7-1.2-1.1L40,55.8c-0.3-0.3-0.6-0.6-0.9-0.8l-0.3-0.3c-0.4-0.4-0.7-0.7-1-1.1l-0.1-0.1
		c-0.4-0.4-0.7-0.8-1.1-1.2L36.4,52c-0.3-0.3-0.5-0.6-0.8-0.9l-0.3-0.3c-0.3-0.4-0.6-0.8-0.9-1.2c-8-10.9-10.8-25.9-4.5-38.2
		 M46.8,9.7c-5.2,7.5-4.9,17.6-0.9,25.6c0.7,1.3,1.5,2.6,2.3,3.9c0.8,1.1,1.7,2.5,2.7,3.4c0.4,0.4,0.8,0.8,1.2,1.2l0.3,0.3
		c0.4,0.4,0.8,0.8,1.2,1.1l0,0l0,0c0.5,0.4,0.9,0.8,1.4,1.2l0.3,0.2c0.5,0.4,1,0.7,1.5,1.1l0,0l0.7,0.4l0.3,0.2
		c0.4,0.2,0.7,0.5,1.1,0.7l0.2,0.1c0.3,0.2,0.6,0.4,1,0.5l0.3,0.2l0.7,0.3l0.1,0c0.5,0.2,0.9,0.4,1.4,0.7l0.3,0.1
		c0.4,0.2,0.8,0.3,1.1,0.5l0.5,0.2c0.4,0.1,0.7,0.2,1.1,0.4l0.5,0.2c0.5,0.2,1,0.4,1.5,0.4c27,4.5,33.2-16.3,33.2-16.3
		c-5.6,8.1-16.5,12-28.1,8.9c-0.5-0.1-1-0.3-1.5-0.4l-0.5-0.1c-0.4-0.1-0.7-0.2-1.1-0.4l-0.5-0.2c-0.4-0.1-0.8-0.3-1.2-0.5l-0.3-0.1
		c-0.5-0.2-0.9-0.4-1.4-0.7l-0.7-0.4l-0.4-0.2c-0.3-0.2-0.6-0.3-0.9-0.5l-0.2-0.1c-0.4-0.2-0.7-0.4-1.1-0.7l-0.3-0.2L62,40.3
		c-0.5-0.3-1-0.7-1.5-1.1L60.2,39c-5.1-4-9.1-9.5-11-15.7c-2-6.5-1.6-13.7,1.9-19.6 M65.7,3.2c-3.1,4.5-3.4,10.2-1.2,15.2
		c2.3,5.3,6.9,9.5,12.3,11.5l0.7,0.2l0.3,0.1c0.3,0.1,0.6,0.2,1,0.3c14.9,2.9,19-7.7,20-9.2c-3.5,5.1-9.5,6.3-16.8,4.6
		c-0.6-0.1-1.2-0.3-1.8-0.5c-0.7-0.3-1.4-0.5-2.1-0.9c-1.3-0.6-2.5-1.4-3.7-2.2C67.8,17.2,63.7,7.7,68,0"/>
	<path class="st1" d="M62.3,93.1h-4.2c-0.2,0-0.5,0.2-0.5,0.4l-1.5,6.8l-1.5,6.8c0,0.2-0.3,0.4-0.5,0.4h-2.9c-2.9,0-2.6-2-2-4.8
		l0-0.1l0.1-0.3l0-0.1l0.1-0.7l0.1-0.8l0.2-0.8l0.7-3.3l0.7-3.3c0-0.2-0.1-0.4-0.3-0.4h-4.3c-0.2,0-0.5,0.2-0.5,0.4l-0.9,4.4
		l-0.9,4.4l0,0l-0.1,0.4c-1.1,4.8-0.8,9.4,5,9.6l0.2,0h9c0.2,0,0.5-0.2,0.5-0.4l1.9-9.1l1.9-9.1C62.7,93.3,62.6,93.1,62.3,93.1z
		 M17.8,93.1h-4.6c-0.2,0-0.5,0.2-0.5,0.4l-0.4,1.9l-0.4,1.9c-0.1,0.2,0.1,0.4,0.3,0.4h4.6c0.2,0,0.5-0.2,0.5-0.4l0.4-1.9l0.4-1.9
		C18.2,93.3,18,93.1,17.8,93.1z M16.5,99h-4.6c-0.2,0-0.5,0.2-0.5,0.4l-0.6,2.9l-0.6,2.9L9.9,106l-0.6,2.9l-0.6,2.9
		c0,0.2-0.1,0.6-0.2,0.8c0,0-0.9,2.6-2.3,2.5l-0.2,0l-1.3,0h0c-0.2,0-0.5,0.2-0.5,0.4l-0.5,2l-0.5,2c-0.1,0.2,0.1,0.4,0.3,0.4
		c0.8,0,2.7,0,3.8,0c3.6,0,5.5-2,6.7-7.8l1.4-6.6l1.3-6.2C16.8,99.2,16.7,99,16.5,99z M101.2,97.5l-0.2-0.8l-0.2-0.8l-0.1-0.4
		c-0.4-1.5-1.5-2.3-3.9-2.3l-3.7,0l-3.4,0h-3.8c-0.2,0-0.5,0.2-0.5,0.4l-0.2,0.8L85,95.3L85,95.6l-1.7,8.1l-1.6,7.7
		c0,0.2-0.1,0.5,0,0.6c0,0.1,0.5,0.2,0.7,0.2h3.5c0.2,0,0.5,0,0.6-0.1c0.1-0.1,0.3-0.5,0.4-0.7l0.6-3l0.6-3.1l0,0l0.1-0.4l0.7-3.5
		l0.7-3.1c0-0.2,0.3-0.4,0.5-0.4l10.9,0C101.1,97.9,101.3,97.7,101.2,97.5z M115.2,90.4l-0.8,0h-3.5c-0.2,0-0.5,0.2-0.7,0.3
		l-7.7,11.3c-0.1,0.2-0.3,0.2-0.3-0.1l-0.6-2.5c-0.1-0.2-0.3-0.4-0.5-0.4h-5c-0.2,0-0.4,0.2-0.3,0.4l2.2,7.8c0.1,0.2,0.1,0.6,0,0.8
		l-1,3.8c-0.1,0.2,0.1,0.4,0.3,0.4h4.9c0.2,0,0.5-0.2,0.5-0.4l1-3.8c0.1-0.2,0.2-0.6,0.4-0.7l12.5-16.6c0.1-0.2,0.1-0.3-0.2-0.3
		L115.2,90.4z M75.8,100.1L75.8,100.1c0,0.2-0.3,0.4-0.5,0.4H69c-0.2,0-0.3-0.1-0.3-0.3l0,0l0,0l0,0l0-0.1c0.6-1.6,1.8-2.6,4.1-2.6
		C75.5,97.4,76,98.7,75.8,100.1z M74,92.9c-8.1,0-10,4.9-11.1,9.9c-1.1,5-1,9.8,7.4,9.8h1l0.3,0h0.1l1,0h0c2.2,0,4.4,0,5.3,0
		c0.2,0,0.5-0.2,0.5-0.4l0.3-1.7l0.1-0.3l0.4-2c0-0.2-0.1-0.4-0.3-0.4h-7.5c-3,0-3.9-0.8-3.5-3.1h12l0,0l0,0c0.2,0,0.4-0.1,0.4-0.3
		l0-0.1l0,0C82.1,97.4,81.6,92.9,74,92.9z M35.8,100.1l-0.1,0.4v0l-0.9,3.2l-0.9,3.2c-0.1,0.2-0.3,0.4-0.5,0.4h-4.8
		c-3.6,0-4.5-2.8-3.6-7.1c0.9-4.3,2.6-7,6.2-7.2C36,92.7,37,96.1,35.8,100.1z M39.1,107.1c0,0,2.3-5.5,2.8-8.7
		c0.7-4.2-1.4-10.4-9.6-10.4c-8.2,0-11.7,5.9-13.1,12.3c-1.4,6.4,0.4,12.1,8.5,12l6.4,0l6,0c0.2,0,0.5-0.2,0.5-0.4l1-4
		c0.1-0.2-0.1-0.4-0.3-0.4l-1,0l-1,0C39.1,107.5,39,107.3,39.1,107.1L39.1,107.1z M79.5,103.4c0,0.2-0.1,0.3-0.3,0.3
		c-0.2,0-0.3-0.1-0.3-0.3c0-0.2,0.1-0.3,0.3-0.3C79.4,103.1,79.5,103.3,79.5,103.4z"/>
</g>
</svg>
