<?xml version="1.0" encoding="utf-8"?>
<!-- Generator: Adobe Illustrator 28.1.0, SVG Export Plug-In . SVG Version: 6.00 Build 0)  -->
<svg version="1.1" id="レイヤー_1" xmlns="http://www.w3.org/2000/svg" xmlns:xlink="http://www.w3.org/1999/xlink" x="0px"
	 y="0px" viewBox="0 0 700 645" style="enable-background:new 0 0 700 645;" xml:space="preserve">
<style type="text/css">
	.st0{fill:#C7D9CE;}
</style>
<g>
	<g>
		<path class="st0" d="M178.5,241.9c-3.2,0-6-0.8-8.5-2.3c-2.5-1.5-4.4-3.6-5.8-6.4c-1.4-2.8-2.1-6-2.1-9.7c0-3.7,0.7-7,2.1-9.8
			c1.4-2.8,3.4-4.9,5.8-6.4c2.5-1.5,5.3-2.3,8.5-2.3c2.9,0,5.6,0.7,7.9,2c2.3,1.3,4.2,3.1,5.7,5.5l-5.2,3c-0.9-1.5-2.1-2.7-3.5-3.5
			c-1.4-0.8-3.1-1.3-4.9-1.3c-2.1,0-3.9,0.5-5.5,1.6c-1.6,1.1-2.8,2.5-3.6,4.5c-0.9,1.9-1.3,4.2-1.3,6.8c0,2.5,0.4,4.8,1.3,6.7
			c0.9,1.9,2.1,3.4,3.6,4.5c1.6,1.1,3.4,1.6,5.5,1.6c1.8,0,3.5-0.4,4.9-1.3c1.4-0.8,2.6-2,3.5-3.5l5.2,3c-1.4,2.3-3.3,4.1-5.7,5.4
			C184.1,241.2,181.5,241.9,178.5,241.9z"/>
		<path class="st0" d="M207.4,241.6c-2.2,0-4.2-0.5-5.9-1.6c-1.8-1.1-3.1-2.5-4.2-4.4c-1-1.9-1.5-4.1-1.5-6.6s0.5-4.8,1.5-6.7
			c1-1.9,2.4-3.4,4.2-4.4c1.8-1.1,3.7-1.6,5.9-1.6c2.3,0,4.3,0.5,6,1.6c1.8,1.1,3.1,2.5,4.1,4.4c1,1.9,1.5,4.1,1.5,6.7
			s-0.5,4.8-1.5,6.6c-1,1.9-2.4,3.4-4.1,4.4C211.7,241.1,209.7,241.6,207.4,241.6z M207.4,236.5c1.8,0,3.2-0.7,4.3-2
			c1.1-1.3,1.7-3.2,1.7-5.6c0-2.4-0.6-4.3-1.7-5.6c-1.1-1.3-2.6-2-4.3-2c-1.7,0-3.2,0.7-4.3,2s-1.7,3.2-1.7,5.6
			c0,2.4,0.6,4.3,1.7,5.6C204.3,235.9,205.7,236.5,207.4,236.5z"/>
		<path class="st0" d="M224,241.1v-24.1h5.1l0.4,2.9c0.5-1,1.3-1.8,2.4-2.5c1.1-0.7,2.4-1,3.8-1c1.6,0,2.9,0.4,4.1,1.1
			c1.2,0.7,2.1,1.8,2.7,3.2c0.6-1.2,1.6-2.3,2.8-3.1c1.2-0.8,2.6-1.2,4.2-1.2c2.4,0,4.3,0.8,5.7,2.5c1.5,1.7,2.2,4,2.2,7v15.3h-5.7
			v-14c0-1.8-0.3-3.2-1-4.2c-0.6-1-1.5-1.5-2.7-1.5c-1.4,0-2.6,0.5-3.3,1.6c-0.8,1-1.2,2.5-1.2,4.4v13.7h-5.7v-14
			c0-1.8-0.3-3.2-1-4.2c-0.7-1-1.6-1.5-2.7-1.5c-1.4,0-2.5,0.5-3.3,1.6c-0.8,1.1-1.2,2.5-1.2,4.4v13.7H224z"/>
		<path class="st0" d="M263.4,241.1v-24.1h5.1l0.4,2.9c0.5-1,1.3-1.8,2.4-2.5c1.1-0.7,2.4-1,3.8-1c1.6,0,2.9,0.4,4.1,1.1
			c1.2,0.7,2.1,1.8,2.7,3.2c0.6-1.2,1.6-2.3,2.8-3.1c1.2-0.8,2.6-1.2,4.2-1.2c2.4,0,4.3,0.8,5.7,2.5c1.5,1.7,2.2,4,2.2,7v15.3H291
			v-14c0-1.8-0.3-3.2-1-4.2c-0.6-1-1.5-1.5-2.7-1.5c-1.4,0-2.6,0.5-3.3,1.6c-0.8,1-1.2,2.5-1.2,4.4v13.7h-5.7v-14
			c0-1.8-0.3-3.2-1-4.2c-0.7-1-1.6-1.5-2.7-1.5c-1.4,0-2.5,0.5-3.3,1.6c-0.8,1.1-1.2,2.5-1.2,4.4v13.7H263.4z"/>
		<path class="st0" d="M311,241.6c-2.5,0-4.6-0.8-6.1-2.4c-1.6-1.6-2.4-4-2.4-7.1v-15.2h5.7v13.9c0,1.8,0.4,3.2,1.2,4.2
			c0.8,1,1.8,1.5,3.1,1.5c1.4,0,2.6-0.5,3.5-1.5c0.9-1,1.4-2.5,1.4-4.4v-13.7h5.7v24.1h-5.1l-0.3-2.9c-0.6,0.9-1.5,1.7-2.6,2.4
			C313.9,241.3,312.6,241.6,311,241.6z"/>
		<path class="st0" d="M329.1,241.1v-24.1h5.1l0.3,2.9c0.7-0.9,1.6-1.7,2.7-2.4c1.1-0.7,2.4-1,3.9-1c2.5,0,4.6,0.8,6.1,2.4
			c1.6,1.6,2.4,4,2.4,7.1v15.3h-5.7v-13.9c0-1.9-0.4-3.3-1.2-4.3c-0.8-1-1.8-1.4-3.1-1.4c-1.4,0-2.6,0.5-3.5,1.5
			c-0.9,1-1.4,2.5-1.4,4.4v13.8H329.1z"/>
		<path class="st0" d="M359.3,213c-1,0-1.8-0.4-2.5-1.1c-0.7-0.7-1.1-1.5-1.1-2.5c0-1,0.4-1.8,1.1-2.5c0.7-0.7,1.5-1.1,2.5-1.1
			s1.8,0.4,2.5,1.1c0.7,0.7,1.1,1.5,1.1,2.5c0,1-0.4,1.8-1.1,2.5C361.1,212.6,360.3,213,359.3,213z M356.5,241.1v-24.1h5.6v24.1
			H356.5z"/>
		<path class="st0" d="M379.4,241.6c-2.2,0-4.2-0.5-5.9-1.6s-3.1-2.5-4.2-4.4c-1-1.9-1.5-4.1-1.5-6.6s0.5-4.8,1.5-6.7
			c1-1.9,2.4-3.4,4.2-4.4c1.8-1.1,3.7-1.6,5.9-1.6c2,0,3.8,0.4,5.4,1.2c1.6,0.8,3,2,4,3.5l-4.5,3.3c-1-1.9-2.7-2.9-4.9-2.9
			c-1.7,0-3.2,0.7-4.3,2c-1.1,1.3-1.7,3.2-1.7,5.6c0,2.4,0.6,4.3,1.7,5.6c1.1,1.3,2.5,2,4.3,2c2.2,0,3.8-0.9,4.9-2.8l4.5,3.3
			c-1,1.5-2.4,2.6-4,3.4C383.1,241.2,381.3,241.6,379.4,241.6z"/>
		<path class="st0" d="M401.6,241.4c-2.6,0.1-4.8-0.5-6.4-1.7c-1.7-1.2-2.5-3-2.5-5.4c0-1.7,0.5-3.2,1.6-4.4c1-1.2,2.4-2.1,4-2.8
			c1.6-0.7,3.3-1,5.1-1.1c0.9-0.1,1.7,0,2.5,0.2c0.8,0.2,1.5,0.5,2.1,0.9V225c0-1.6-0.3-2.6-1-3.1c-0.7-0.5-1.7-0.7-3-0.7
			c-1.4,0-2.9,0.3-4.4,0.8c-1.6,0.5-2.9,1.2-4,1.9l-2.6-4.4c1.4-0.9,3-1.6,5-2.3c1.9-0.7,3.9-1,6-1c3.1,0,5.5,0.6,7,1.9
			s2.4,3.5,2.4,6.8v11.1c0,0.7,0.2,1.1,0.5,1.2c0.3,0.1,1,0,2.2-0.4v3.6c-0.5,0.2-1.1,0.4-1.9,0.6c-0.8,0.2-1.6,0.3-2.4,0.3
			c-1,0-1.8-0.2-2.4-0.5c-0.6-0.4-0.9-0.9-1.2-1.8c-0.8,0.7-1.8,1.2-2.9,1.6C403.9,241.1,402.8,241.4,401.6,241.4z M401.5,236.5
			c1.9-0.1,3.4-0.4,4.6-1.1c1.2-0.7,1.8-1.6,1.7-2.9c0-0.8-0.4-1.4-1.2-1.7c-0.8-0.3-1.8-0.4-2.9-0.4c-1.6,0-3,0.4-4.1,1.2
			c-1.1,0.8-1.6,1.7-1.6,2.6C398.1,235.9,399.2,236.6,401.5,236.5z"/>
		<path class="st0" d="M430.3,241.6c-2.4,0-4.2-0.4-5.4-1.3c-1.3-0.9-1.9-2.6-1.9-5.2v-13.3h-4.6v-4.9h4.6v-8.5h5.6v8.5h6.7v4.9
			h-6.7v11.8c0,1.1,0.3,1.9,0.8,2.3c0.6,0.4,1.3,0.6,2.4,0.6c0.6,0,1.3-0.1,1.9-0.3c0.7-0.2,1.2-0.4,1.5-0.6v5.2
			c-0.6,0.2-1.4,0.4-2.3,0.6S431.2,241.6,430.3,241.6z"/>
		<path class="st0" d="M443.3,213c-1,0-1.8-0.4-2.5-1.1c-0.7-0.7-1.1-1.5-1.1-2.5c0-1,0.4-1.8,1.1-2.5c0.7-0.7,1.5-1.1,2.5-1.1
			c1,0,1.8,0.4,2.5,1.1c0.7,0.7,1.1,1.5,1.1,2.5c0,1-0.4,1.8-1.1,2.5C445.1,212.6,444.3,213,443.3,213z M440.6,241.1v-24.1h5.6v24.1
			H440.6z"/>
		<path class="st0" d="M463.4,241.6c-2.2,0-4.2-0.5-5.9-1.6c-1.8-1.1-3.1-2.5-4.2-4.4c-1-1.9-1.5-4.1-1.5-6.6s0.5-4.8,1.5-6.7
			c1-1.9,2.4-3.4,4.2-4.4c1.8-1.1,3.7-1.6,5.9-1.6c2.3,0,4.3,0.5,6,1.6c1.8,1.1,3.1,2.5,4.1,4.4c1,1.9,1.5,4.1,1.5,6.7
			s-0.5,4.8-1.5,6.6c-1,1.9-2.4,3.4-4.1,4.4S465.7,241.6,463.4,241.6z M463.4,236.5c1.8,0,3.2-0.7,4.3-2c1.1-1.3,1.7-3.2,1.7-5.6
			c0-2.4-0.6-4.3-1.7-5.6c-1.1-1.3-2.6-2-4.3-2c-1.7,0-3.2,0.7-4.3,2c-1.1,1.3-1.7,3.2-1.7,5.6c0,2.4,0.6,4.3,1.7,5.6
			C460.2,235.9,461.6,236.5,463.4,236.5z"/>
		<path class="st0" d="M479.9,241.1v-24.1h5.1l0.3,2.9c0.7-0.9,1.6-1.7,2.7-2.4c1.1-0.7,2.4-1,3.9-1c2.5,0,4.6,0.8,6.1,2.4
			c1.6,1.6,2.4,4,2.4,7.1v15.3h-5.7v-13.9c0-1.9-0.4-3.3-1.2-4.3c-0.8-1-1.8-1.4-3.1-1.4c-1.4,0-2.6,0.5-3.5,1.5
			c-0.9,1-1.4,2.5-1.4,4.4v13.8H479.9z"/>
	</g>
	<g>
		<path class="st0" d="M9.9,483.4c-0.8,1.5-0.5,3.4,0.7,4.5c0.7,0.7,1.7,1,2.6,1c0.7,0,1.4-0.2,2-0.6l28.5-17.6
			c5.3,2.7,11,4.8,16.8,6.3C72.2,494.9,95.4,507,122,507c13.3,0,26.2-3,37.4-8.8l26,16c0.3,0.2,0.7,0.3,1,0.3c0.5,0,0.9-0.2,1.3-0.5
			c0.6-0.6,0.8-1.5,0.4-2.3L175,487.3c10.7-10.1,16.5-22.8,16.5-36c0-17.7-10.3-33.5-26.5-43.7c-5.2-31.5-38.7-55.9-79.2-55.9
			c-44,0-79.9,28.9-79.9,64.4c0,15,6.4,29.4,18.2,40.9L9.9,483.4z M13.4,416c0-31.4,32.4-56.9,72.3-56.9c34.1,0,62.7,18.6,70.4,43.6
			c1.3,4.3,2,8.7,2,13.3c0,31.4-32.4,56.9-72.4,56.9c-10.5,0-20.7-1.8-30.1-5.2c-3.6-1.3-7-2.8-10.3-4.5c-1.2-0.6-2.6-0.6-3.8,0.1
			l-18.3,11.3l8.9-16.6c0.8-1.6,0.5-3.4-0.8-4.6C19.8,442.9,13.4,429.7,13.4,416z"/>
		
			<ellipse transform="matrix(2.772733e-02 -0.9996 0.9996 2.772733e-02 -368.6259 457.5417)" class="st0" cx="50.9" cy="418.3" rx="8.3" ry="8.3"/>
		<path class="st0" d="M86.4,426.6c4.6,0,8.3-3.7,8.3-8.3c0-4.6-3.7-8.3-8.3-8.3c-4.6,0-8.3,3.7-8.3,8.3
			C78.1,422.9,81.9,426.6,86.4,426.6z"/>
		<path class="st0" d="M122,426.6c4.6,0,8.3-3.7,8.3-8.3c0-4.6-3.7-8.3-8.3-8.3c-4.6,0-8.3,3.7-8.3,8.3
			C113.7,422.9,117.4,426.6,122,426.6z"/>
	</g>
	<g>
		<g>
			<path class="st0" d="M651.1,461.3l-41.4-41.4c15-23.9,12.2-55.9-8.6-76.6c-24.1-24.1-63.4-24.1-87.5,0
				c-24.1,24.1-24.1,63.4,0,87.5c20.8,20.8,52.8,23.6,76.7,8.6l41.4,41.4c5.4,5.4,14.1,5.4,19.5,0
				C656.5,475.4,656.5,466.6,651.1,461.3z M589.9,419.6c-18,18-47.3,18-65.2,0c-18-18-18-47.3,0-65.2c18-18,47.3-18,65.2,0
				C607.9,372.3,607.9,401.6,589.9,419.6z"/>
			<path class="st0" d="M544.8,351.1c-2.4,0.8-3.6,3.4-2.8,5.8c0.8,2.4,3.4,3.6,5.8,2.8c10.5-3.7,22-1,29.9,6.9
				c1.8,1.8,4.6,1.8,6.4,0c1.8-1.8,1.8-4.6,0-6.4C573.9,349.9,558.5,346.4,544.8,351.1z"/>
		</g>
		<g>
			<g>
				<path class="st0" d="M493.5,556.9c-3.2,0-6-0.8-8.5-2.3c-2.5-1.5-4.4-3.6-5.8-6.4c-1.4-2.8-2.1-6-2.1-9.7c0-3.7,0.7-7,2.1-9.8
					c1.4-2.8,3.4-4.9,5.8-6.4c2.5-1.5,5.3-2.3,8.5-2.3c2.9,0,5.6,0.7,7.9,2c2.3,1.3,4.2,3.1,5.7,5.5l-5.2,3
					c-0.9-1.5-2.1-2.7-3.5-3.5c-1.4-0.8-3.1-1.3-4.9-1.3c-2.1,0-3.9,0.5-5.5,1.6c-1.6,1.1-2.8,2.5-3.6,4.5c-0.9,1.9-1.3,4.2-1.3,6.8
					c0,2.5,0.4,4.8,1.3,6.7c0.9,1.9,2.1,3.4,3.6,4.5c1.6,1.1,3.4,1.6,5.5,1.6c1.8,0,3.5-0.4,4.9-1.3c1.4-0.8,2.6-2,3.5-3.5l5.2,3
					c-1.4,2.3-3.3,4.1-5.7,5.4C499.1,556.2,496.4,556.9,493.5,556.9z"/>
				<path class="st0" d="M520.1,556.6c-2.5,0-4.6-0.8-6.1-2.4c-1.6-1.6-2.4-4-2.4-7.1v-15.2h5.7v13.9c0,1.8,0.4,3.2,1.2,4.2
					c0.8,1,1.8,1.5,3.1,1.5c1.4,0,2.6-0.5,3.5-1.5c0.9-1,1.4-2.5,1.4-4.4v-13.7h5.7v24.1H527l-0.3-2.9c-0.6,0.9-1.5,1.7-2.6,2.4
					C523,556.3,521.7,556.6,520.1,556.6z"/>
				<path class="st0" d="M538.2,556.1v-24.1h5.1l0.4,3.4c0.6-1.2,1.5-2.2,2.8-2.9c1.3-0.7,2.7-1.1,4.1-1.1c0.6,0,1.1,0,1.6,0.1
					c0.5,0.1,0.9,0.2,1.2,0.3v5.5c-0.4-0.1-0.9-0.2-1.5-0.3c-0.6-0.1-1.3-0.1-2-0.1c-1.6,0-3,0.5-4.2,1.6c-1.2,1.1-1.7,2.6-1.7,4.5
					v13.3H538.2z"/>
				<path class="st0" d="M560.9,528c-1,0-1.8-0.4-2.5-1.1c-0.7-0.7-1.1-1.5-1.1-2.5s0.4-1.8,1.1-2.5c0.7-0.7,1.5-1.1,2.5-1.1
					c1,0,1.8,0.4,2.5,1.1c0.7,0.7,1.1,1.5,1.1,2.5s-0.4,1.8-1.1,2.5C562.7,527.6,561.9,528,560.9,528z M558.2,556.1v-24.1h5.6v24.1
					H558.2z"/>
				<path class="st0" d="M581,556.6c-2.2,0-4.2-0.5-5.9-1.6c-1.8-1.1-3.1-2.5-4.2-4.4c-1-1.9-1.5-4.1-1.5-6.7c0-2.5,0.5-4.8,1.5-6.7
					c1-1.9,2.4-3.4,4.2-4.4c1.8-1.1,3.7-1.6,5.9-1.6c2.3,0,4.3,0.5,6,1.6c1.8,1.1,3.1,2.5,4.1,4.4c1,1.9,1.5,4.1,1.5,6.7
					c0,2.5-0.5,4.8-1.5,6.7c-1,1.9-2.4,3.4-4.1,4.4C585.3,556.1,583.3,556.6,581,556.6z M581,551.5c1.8,0,3.2-0.7,4.3-2
					c1.1-1.3,1.7-3.2,1.7-5.6c0-2.4-0.6-4.3-1.7-5.6c-1.1-1.3-2.6-2-4.3-2c-1.7,0-3.2,0.7-4.3,2c-1.1,1.3-1.7,3.2-1.7,5.6
					c0,2.4,0.6,4.3,1.7,5.6C577.8,550.9,579.3,551.5,581,551.5z"/>
				<path class="st0" d="M606.2,556.6c-2,0-3.8-0.3-5.6-1c-1.8-0.7-3.3-1.8-4.7-3.3l3.5-3.8c1.9,2.1,4.3,3.2,7.1,3.2
					c1.4,0,2.4-0.2,3-0.6c0.6-0.4,0.9-1.1,0.9-2.1c0-0.5-0.2-0.9-0.5-1.2c-0.3-0.3-0.9-0.6-1.7-0.9c-0.8-0.3-2-0.6-3.6-0.9
					c-2.3-0.5-4.2-1.2-5.6-2.3s-2.1-2.8-2.1-5.1c0-1.5,0.4-2.8,1.2-3.9c0.8-1.1,1.9-1.9,3.3-2.5c1.4-0.6,2.9-0.9,4.6-0.9
					c1.9,0,3.6,0.3,5.1,0.8c1.5,0.6,2.9,1.4,4,2.6l-3.2,4c-0.8-0.9-1.7-1.5-2.7-1.9c-1-0.4-2.1-0.6-3.2-0.6c-1.2,0-2.1,0.2-2.6,0.7
					c-0.5,0.4-0.8,1-0.8,1.6c0,0.4,0.1,0.8,0.4,1.1c0.3,0.3,0.7,0.6,1.5,0.9c0.7,0.3,1.8,0.6,3.2,0.9c2.7,0.6,4.8,1.6,6.2,2.8
					s2.2,2.9,2.2,5.1c0,2.4-0.9,4.3-2.8,5.5S609.2,556.6,606.2,556.6z"/>
				<path class="st0" d="M624.3,528c-1,0-1.8-0.4-2.5-1.1c-0.7-0.7-1.1-1.5-1.1-2.5s0.4-1.8,1.1-2.5c0.7-0.7,1.5-1.1,2.5-1.1
					c1,0,1.8,0.4,2.5,1.1c0.7,0.7,1.1,1.5,1.1,2.5s-0.4,1.8-1.1,2.5C626.1,527.6,625.2,528,624.3,528z M621.5,556.1v-24.1h5.6v24.1
					H621.5z"/>
				<path class="st0" d="M643.8,556.6c-2.4,0-4.2-0.4-5.4-1.3c-1.3-0.9-1.9-2.6-1.9-5.2v-13.3h-4.6v-4.9h4.6v-8.5h5.6v8.5h6.7v4.9
					h-6.7v11.8c0,1.1,0.3,1.9,0.8,2.3c0.6,0.4,1.3,0.6,2.4,0.6c0.6,0,1.3-0.1,1.9-0.3c0.7-0.2,1.2-0.4,1.5-0.6v5.2
					c-0.6,0.2-1.4,0.4-2.3,0.6C645.6,556.6,644.7,556.6,643.8,556.6z"/>
				<path class="st0" d="M656.3,566.1c-0.8,0-1.6,0-2.3-0.1c-0.7-0.1-1.3-0.1-1.9-0.3v-5.2c0.6,0.1,1.2,0.2,1.8,0.3
					c0.6,0.1,1.2,0.1,1.8,0.1c0.9,0,1.6-0.1,2-0.3c0.5-0.2,0.8-0.5,1.1-1c0.3-0.5,0.6-1.1,0.9-1.9l0.7-1.8l-9.5-24.1h5.9l6.1,17.3
					l5.8-17.3h5.8l-9.8,27.5c-0.8,2.2-1.8,3.9-2.9,5C660.4,565.5,658.7,566.1,656.3,566.1z"/>
				<path class="st0" d="M451,633.6v-35.1h23.5v5.4h-17.7v9.1h16.2v5.4h-16.2v9.8H475v5.4H451z"/>
				<path class="st0" d="M477.8,633.6l9.4-12.8l-8.3-11.3h6.5l4.9,7.1l5-7.1h6.3l-8.2,11.2l9.5,12.9h-6.6l-5.9-8.6l-5.9,8.6H477.8z"
					/>
				<path class="st0" d="M506.8,643.5v-34h4.9l0.3,2.7c1.7-2.2,3.9-3.3,6.7-3.3c2.2,0,4.2,0.5,6,1.5c1.8,1,3.1,2.5,4.1,4.3
					c1,1.9,1.5,4.2,1.5,6.8c0,2.6-0.5,4.9-1.5,6.8c-1,1.9-2.4,3.3-4.1,4.3c-1.8,1-3.8,1.5-6,1.5c-1.2,0-2.4-0.2-3.5-0.7
					c-1.1-0.5-2-1.2-2.8-2v12.1H506.8z M518.6,629c1.8,0,3.2-0.7,4.4-2c1.2-1.3,1.8-3.2,1.8-5.6c0-2.4-0.6-4.3-1.8-5.6
					c-1.2-1.3-2.6-2-4.4-2c-1.8,0-3.2,0.7-4.4,2c-1.2,1.3-1.8,3.2-1.8,5.6c0,2.4,0.6,4.3,1.8,5.6C515.3,628.3,516.8,629,518.6,629z"
					/>
				<path class="st0" d="M535.3,633.6v-35.8h5.7v35.8H535.3z"/>
				<path class="st0" d="M557.5,634.1c-2.2,0-4.2-0.5-5.9-1.6c-1.8-1.1-3.1-2.5-4.2-4.4c-1-1.9-1.5-4.1-1.5-6.7
					c0-2.5,0.5-4.8,1.5-6.7c1-1.9,2.4-3.4,4.2-4.4c1.8-1.1,3.7-1.6,5.9-1.6c2.3,0,4.3,0.5,6,1.6c1.8,1.1,3.1,2.5,4.1,4.4
					c1,1.9,1.5,4.1,1.5,6.7c0,2.5-0.5,4.8-1.5,6.7c-1,1.9-2.4,3.4-4.1,4.4C561.8,633.6,559.7,634.1,557.5,634.1z M557.5,629
					c1.8,0,3.2-0.7,4.3-2c1.1-1.3,1.7-3.2,1.7-5.6c0-2.4-0.6-4.3-1.7-5.6s-2.6-2-4.3-2c-1.7,0-3.2,0.7-4.3,2
					c-1.1,1.3-1.7,3.2-1.7,5.6c0,2.4,0.6,4.3,1.7,5.6C554.3,628.3,555.7,629,557.5,629z"/>
				<path class="st0" d="M574,633.6v-24.1h5.1l0.4,3.4c0.6-1.2,1.5-2.2,2.8-2.9c1.3-0.7,2.7-1.1,4.1-1.1c0.6,0,1.1,0,1.6,0.1
					c0.5,0.1,0.9,0.2,1.2,0.3v5.5c-0.4-0.1-0.9-0.2-1.5-0.3c-0.6-0.1-1.3-0.1-2-0.1c-1.6,0-3,0.5-4.2,1.6c-1.2,1.1-1.7,2.6-1.7,4.5
					v13.3H574z"/>
				<path class="st0" d="M601.1,633.9c-2.6,0.1-4.8-0.5-6.4-1.7c-1.7-1.2-2.5-3-2.5-5.4c0-1.7,0.5-3.2,1.6-4.4c1-1.2,2.4-2.1,4-2.8
					c1.6-0.7,3.3-1,5.1-1.1c0.9-0.1,1.7,0,2.5,0.2c0.8,0.2,1.5,0.5,2.1,0.9v-2.1c0-1.6-0.3-2.6-1-3.1c-0.7-0.5-1.7-0.7-3-0.7
					c-1.4,0-2.9,0.3-4.4,0.8c-1.6,0.5-2.9,1.2-4,1.9l-2.6-4.4c1.4-0.9,3-1.6,5-2.3c1.9-0.7,3.9-1,6-1c3.1,0,5.5,0.6,7,1.9
					c1.6,1.3,2.4,3.5,2.4,6.8v11.1c0,0.7,0.2,1.1,0.5,1.2c0.3,0.1,1,0,2.2-0.4v3.6c-0.5,0.2-1.1,0.4-1.9,0.6
					c-0.8,0.2-1.6,0.3-2.4,0.3c-1,0-1.8-0.2-2.4-0.5c-0.6-0.4-0.9-0.9-1.2-1.8c-0.8,0.7-1.8,1.2-2.9,1.6
					C603.5,633.6,602.3,633.8,601.1,633.9z M601,629c1.9-0.1,3.4-0.4,4.6-1.1c1.2-0.7,1.8-1.6,1.7-2.9c0-0.8-0.4-1.4-1.2-1.7
					c-0.8-0.3-1.8-0.4-2.9-0.4c-1.6,0-3,0.4-4.1,1.2c-1.1,0.8-1.6,1.7-1.6,2.6C597.7,628.4,598.8,629.1,601,629z"/>
				<path class="st0" d="M629.9,634.1c-2.4,0-4.2-0.4-5.4-1.3c-1.3-0.9-1.9-2.6-1.9-5.2v-13.3h-4.6v-4.9h4.6v-8.5h5.6v8.5h6.7v4.9
					h-6.7v11.8c0,1.1,0.3,1.9,0.8,2.3c0.6,0.4,1.3,0.6,2.4,0.6c0.6,0,1.3-0.1,1.9-0.3c0.7-0.2,1.2-0.4,1.5-0.6v5.2
					c-0.6,0.2-1.4,0.4-2.3,0.6C631.7,634,630.8,634.1,629.9,634.1z"/>
				<path class="st0" d="M642.9,605.5c-1,0-1.8-0.4-2.5-1.1c-0.7-0.7-1.1-1.5-1.1-2.5c0-1,0.4-1.8,1.1-2.5c0.7-0.7,1.5-1.1,2.5-1.1
					c1,0,1.8,0.4,2.5,1.1c0.7,0.7,1.1,1.5,1.1,2.5c0,1-0.4,1.8-1.1,2.5C644.7,605.1,643.9,605.5,642.9,605.5z M640.1,633.6v-24.1
					h5.6v24.1H640.1z"/>
				<path class="st0" d="M663,634.1c-2.2,0-4.2-0.5-5.9-1.6c-1.8-1.1-3.1-2.5-4.2-4.4c-1-1.9-1.5-4.1-1.5-6.7c0-2.5,0.5-4.8,1.5-6.7
					c1-1.9,2.4-3.4,4.2-4.4c1.8-1.1,3.7-1.6,5.9-1.6c2.3,0,4.3,0.5,6,1.6c1.8,1.1,3.1,2.5,4.1,4.4c1,1.9,1.5,4.1,1.5,6.7
					c0,2.5-0.5,4.8-1.5,6.7c-1,1.9-2.4,3.4-4.1,4.4C667.3,633.6,665.2,634.1,663,634.1z M663,629c1.8,0,3.2-0.7,4.3-2
					c1.1-1.3,1.7-3.2,1.7-5.6c0-2.4-0.6-4.3-1.7-5.6c-1.1-1.3-2.6-2-4.3-2c-1.7,0-3.2,0.7-4.3,2c-1.1,1.3-1.7,3.2-1.7,5.6
					c0,2.4,0.6,4.3,1.7,5.6C659.8,628.3,661.2,629,663,629z"/>
				<path class="st0" d="M679.5,633.6v-24.1h5.1l0.3,2.9c0.7-0.9,1.6-1.7,2.7-2.4c1.1-0.7,2.4-1,3.9-1c2.5,0,4.6,0.8,6.1,2.4
					c1.6,1.6,2.4,4,2.4,7.1v15.3h-5.7v-13.9c0-1.9-0.4-3.3-1.2-4.3c-0.8-1-1.8-1.4-3.1-1.4c-1.4,0-2.6,0.5-3.5,1.5
					c-0.9,1-1.4,2.5-1.4,4.4v13.8H679.5z"/>
			</g>
			<g>
				<path class="st0" d="M584.8,579.2c-0.6,3.6-1.5,6.7-3.3,8.8c1.2,1.3,2.3,2.5,3.8,4.1h-3.1c-0.7-0.7-1.3-1.4-2.3-2.4
					c-2.1,2-4.3,2.8-6.8,2.8c-4.4,0-7-3.1-7-6.7c0-3.2,1.9-5.4,4.6-7v-0.1c-1.2-1.6-2-3.4-2-5.1c0-2.9,2-5.8,5.7-5.8
					c2.7,0,4.9,1.9,4.9,5c0,2.5-1.4,4.5-5.2,6.4v0.1c2,2.4,4.3,5.2,6,7.1c1.1-1.8,1.8-4.2,2.2-7.2H584.8z M578.6,588.2
					c-1.5-1.8-4.2-4.8-6.8-7.9c-1.3,0.9-3.2,2.5-3.2,5.2c0,2.8,2,5,4.9,5C575.5,590.5,577.4,589.7,578.6,588.2z M571.1,573.4
					c0,1.8,0.8,3.2,1.8,4.5c2.5-1.4,4.1-2.8,4.1-4.9c0-1.6-0.8-3.2-2.8-3.2C572.1,569.7,571.1,571.5,571.1,573.4z"/>
			</g>
		</g>
	</g>
	<g>
		<path class="st0" d="M0,633.6v-35.1h5.8v29.8h18.3v5.4H0z"/>
		<path class="st0" d="M31.7,605.5c-1,0-1.8-0.4-2.5-1.1c-0.7-0.7-1.1-1.5-1.1-2.5c0-1,0.4-1.8,1.1-2.5c0.7-0.7,1.5-1.1,2.5-1.1
			s1.8,0.4,2.5,1.1c0.7,0.7,1.1,1.5,1.1,2.5c0,1-0.4,1.8-1.1,2.5C33.5,605.1,32.6,605.5,31.7,605.5z M28.9,633.6v-24.1h5.6v24.1
			H28.9z"/>
		<path class="st0" d="M50,634.1c-2,0-3.8-0.3-5.6-1c-1.8-0.7-3.3-1.8-4.7-3.3l3.5-3.8c1.9,2.1,4.2,3.2,7.1,3.2c1.4,0,2.4-0.2,3-0.6
			c0.6-0.4,0.9-1.1,0.9-2.1c0-0.5-0.2-0.9-0.5-1.2c-0.3-0.3-0.9-0.6-1.7-0.9c-0.8-0.3-2-0.6-3.6-0.9c-2.3-0.5-4.2-1.2-5.6-2.3
			c-1.4-1.1-2.1-2.8-2.1-5.1c0-1.5,0.4-2.8,1.2-3.9c0.8-1.1,1.9-1.9,3.3-2.5c1.4-0.6,2.9-0.9,4.6-0.9c1.9,0,3.6,0.3,5.1,0.8
			c1.5,0.6,2.9,1.4,4,2.6l-3.2,4c-0.8-0.9-1.7-1.5-2.7-1.9c-1-0.4-2.1-0.6-3.2-0.6c-1.2,0-2.1,0.2-2.6,0.7c-0.5,0.4-0.8,1-0.8,1.6
			c0,0.4,0.1,0.8,0.4,1.1c0.3,0.3,0.7,0.6,1.5,0.9c0.7,0.3,1.8,0.6,3.2,0.9c2.7,0.6,4.8,1.6,6.2,2.8c1.5,1.2,2.2,2.9,2.2,5.1
			c0,2.4-0.9,4.3-2.8,5.5C55.4,633.4,53,634.1,50,634.1z"/>
		<path class="st0" d="M74.4,634.1c-2.4,0-4.2-0.4-5.4-1.3c-1.3-0.9-1.9-2.6-1.9-5.2v-13.3h-4.6v-4.9h4.6v-8.5h5.6v8.5h6.7v4.9h-6.7
			v11.8c0,1.1,0.3,1.9,0.8,2.3c0.6,0.4,1.3,0.6,2.4,0.6c0.6,0,1.3-0.1,1.9-0.3c0.7-0.2,1.2-0.4,1.5-0.6v5.2
			c-0.6,0.2-1.4,0.4-2.3,0.6C76.2,634,75.3,634.1,74.4,634.1z"/>
		<path class="st0" d="M94.4,634.1c-3.5,0-6.4-1.1-8.5-3.2c-2.2-2.1-3.3-5.3-3.3-9.5c0-2.6,0.5-4.9,1.5-6.8c1-1.9,2.3-3.3,4.1-4.4
			c1.7-1,3.7-1.5,6-1.5c2.2,0,4.1,0.5,5.7,1.6c1.6,1.1,2.8,2.6,3.6,4.4c0.8,1.9,1.3,4,1.3,6.3v1.3H88.1c0.1,2.4,0.8,4.1,1.9,5.1
			c1.1,1,2.6,1.5,4.4,1.5c1.6,0,2.9-0.4,3.9-1.1c1-0.8,1.9-1.9,2.6-3.4l4.2,2.9c-1.2,2.3-2.8,4-4.5,5
			C98.8,633.6,96.7,634.1,94.4,634.1z M88.4,618.2h10.7c-0.3-1.6-0.8-2.8-1.7-3.6c-0.9-0.9-2-1.3-3.4-1.3c-1.5,0-2.7,0.4-3.6,1.2
			C89.4,615.2,88.7,616.5,88.4,618.2z"/>
		<path class="st0" d="M110,633.6v-24.1h5.1l0.3,2.9c0.7-0.9,1.6-1.7,2.7-2.4c1.1-0.7,2.4-1,3.9-1c2.5,0,4.6,0.8,6.1,2.4
			c1.6,1.6,2.4,4,2.4,7.1v15.3h-5.7v-13.9c0-1.9-0.4-3.3-1.2-4.3c-0.8-1-1.8-1.4-3.1-1.4c-1.4,0-2.6,0.5-3.5,1.5
			c-0.9,1-1.4,2.5-1.4,4.4v13.8H110z"/>
		<path class="st0" d="M140.2,605.5c-1,0-1.8-0.4-2.5-1.1c-0.7-0.7-1.1-1.5-1.1-2.5c0-1,0.4-1.8,1.1-2.5c0.7-0.7,1.5-1.1,2.5-1.1
			c1,0,1.8,0.4,2.5,1.1c0.7,0.7,1.1,1.5,1.1,2.5c0,1-0.4,1.8-1.1,2.5C142,605.1,141.1,605.5,140.2,605.5z M137.4,633.6v-24.1h5.6
			v24.1H137.4z"/>
		<path class="st0" d="M149.9,633.6v-24.1h5.1l0.3,2.9c0.7-0.9,1.6-1.7,2.7-2.4c1.1-0.7,2.4-1,3.9-1c2.5,0,4.6,0.8,6.1,2.4
			c1.6,1.6,2.4,4,2.4,7.1v15.3h-5.7v-13.9c0-1.9-0.4-3.3-1.2-4.3c-0.8-1-1.8-1.4-3.1-1.4c-1.4,0-2.6,0.5-3.5,1.5
			c-0.9,1-1.4,2.5-1.4,4.4v13.8H149.9z"/>
		<path class="st0" d="M186.4,643.6c-2.5,0-4.7-0.5-6.4-1.4c-1.8-0.9-3.2-2.4-4.4-4.4l4.6-3c0.7,1.2,1.5,2.2,2.5,2.8
			c1,0.6,2.3,0.9,3.8,0.9c2,0,3.4-0.6,4.4-1.8s1.4-3.1,1.4-5.8v-1.4c-1.6,1.6-3.6,2.5-6,2.5c-2.1,0-4-0.4-5.6-1.3
			c-1.7-0.9-3-2.2-3.9-3.9c-0.9-1.7-1.4-3.8-1.4-6.3c0-2.5,0.5-4.7,1.4-6.4s2.2-3,3.9-3.9c1.7-0.9,3.5-1.3,5.6-1.3
			c2.7,0,4.8,1,6.5,2.9l0.2-2.3h4.9v21.4c0,4-0.9,7.1-2.8,9.3C193.1,642.4,190.3,643.6,186.4,643.6z M186.6,627
			c1.7,0,3.2-0.6,4.3-1.8c1.1-1.2,1.7-2.8,1.7-4.8c0-2.1-0.6-3.7-1.7-4.8c-1.1-1.2-2.5-1.7-4.3-1.7c-1.7,0-3.1,0.6-4.1,1.7
			c-1,1.2-1.5,2.8-1.5,4.8c0,2,0.5,3.7,1.5,4.8C183.5,626.4,184.9,627,186.6,627z"/>
	</g>
	<path class="st0" d="M449.8,99.6L405,1.4l-19.3,8.8l2.4,5.3l-1.2,0.7l-10.8,4.9l-22.7-10.7c-2-1-4.4-0.8-6.2,0.5l-26,17.5l-6.7-3.8
		c-0.5-0.3-1.1-0.5-1.7-0.7c-2.6-0.6-13.7-2.5-30.3-5.2c-2.7-0.4-5.3-0.9-7.9-1.3l3.3-7.2l-19.2-8.8L214,99.6l19.3,8.8l6.1-13.4
		c6.2,6.6,13.1,13.7,17.2,17.9c-0.8,2.2-0.9,4.2-0.7,5.7c0.7,4.9,4.1,7.8,5.6,8.8c5.9,4.9,32.8,26.7,46.5,27.5c0.3,0,0.7,0,1,0
		c2.7,0,5.1-0.8,7.1-2.2c2.6,1.2,5.7,2.2,8.7,2.2c0.1,0,0.2,0,0.4,0c0.6,0,1.1-0.1,1.7-0.3c0.5-0.1,11.2-3.5,31.1-14.8
		c11.8-6.7,17.6-14.7,20.4-20.9c6.7-2,23.2-7.3,36.1-15.2c4.5-2.8,8-5.2,10.7-7.3l5.5,12L449.8,99.6z M269.3,117.4
		c-0.2-0.2-0.3-0.3-0.6-0.4c0,0-0.1-0.1-0.1-0.1c0.1-0.1,0.2-0.3,0.4-0.5c2.9-2.5,8.2-6.1,10.7-6.1c10.1,0,17.5,4,22.7,12.1
		c4,6.2,6.9,16.4,6.2,19.7C301.4,141.7,281.3,127.4,269.3,117.4z M355.6,126.3l-13.6-16.4c-1.1-1.4-3.1-1.5-4.5-0.4
		c-1.4,1.1-1.5,3.1-0.4,4.5l13,15.7c-3.3,1.8-6.4,3.5-9.1,4.9l-11.1-13.4c-1.1-1.4-3.1-1.5-4.5-0.4c-1.4,1.1-1.5,3.1-0.4,4.5
		l10.2,12.2c-5.6,2.6-9.4,4.1-11.1,4.7c-0.7-0.2-1.7-0.5-2.8-1c0.1-10.1-6.1-22.3-8.2-25.5c-7.5-11.7-19.1-17.9-33.4-17.9
		c-5.2,0-10.8,3.1-14.6,5.8c-4.7-4.8-12.6-13-19-19.9c-0.3-0.3-0.7-0.6-1-0.9l24.3-53.3c3.5,0.6,7.3,1.2,11.2,1.9
		c11,1.8,24.6,4.1,28.6,4.8l0.4,0.2l-7.6,5.1c-1.1,0.7-1.9,1.7-2.3,2.9c-14.7,36.7-6.3,40.3-2.6,41.8c9.5,4,25.8-2.4,36.1-14
		l2.4-1.5l22.5,14l10.2,25c-0.2,1-0.7,2.7-1.7,4.7l-13.2-15.9c-1.1-1.4-3.1-1.5-4.5-0.4c-1.4,1.1-1.5,3.1-0.4,4.5l14.4,17.4
		C361,121.9,358.7,124.1,355.6,126.3z M407.7,92.9c-9,5.5-20.3,9.7-27.7,12.2l-11-27.2c-0.5-1.2-1.4-2.3-2.5-3l-27.6-17.2
		c-2.1-1.3-4.6-1.3-6.7,0l-6.6,4.1c-0.6,0.4-1.1,0.8-1.5,1.3c-6.7,7.9-15.7,11.3-20.1,11.6c0.3-4.5,3.1-14.4,6.7-23.8l40.7-27.4
		l22.1,10.4c1.7,0.8,3.6,0.8,5.3,0l13.7-6.2c0.2-0.1,0.3-0.2,0.5-0.2l0.5-0.3l26.1,57.2C417.7,86.2,414.1,88.9,407.7,92.9z"/>
</g>
</svg>
