<?xml version="1.0" encoding="utf-8"?>
<!-- Generator: Adobe Illustrator 27.0.0, SVG Export Plug-In . SVG Version: 6.00 Build 0)  -->
<svg version="1.1" id="レイヤー_1" xmlns="http://www.w3.org/2000/svg" xmlns:xlink="http://www.w3.org/1999/xlink" x="0px"
	 y="0px" viewBox="0 0 122 86" style="enable-background:new 0 0 122 86;" xml:space="preserve">
<style type="text/css">
	.st0{fill:#E70000;}
	.st1{fill:#FEFEFE;}
</style>
<g>
	<path class="st0" d="M119.5,13.6c-1.4-5.2-5.5-9.4-10.8-10.8C99.2,0.3,61,0.3,61,0.3s-38.2,0-47.7,2.5C8.1,4.3,4,8.4,2.5,13.6
		C0,23.1,0,43,0,43s0,19.9,2.5,29.4c1.4,5.2,5.5,9.4,10.8,10.8c9.5,2.5,47.7,2.5,47.7,2.5s38.2,0,47.7-2.5
		c5.2-1.4,9.4-5.5,10.8-10.8C122,62.9,122,43,122,43S122,23.1,119.5,13.6z"/>
	<polygon class="st1" points="48.8,61.3 80.5,43 48.8,24.7 	"/>
</g>
</svg>
